# xmcd
#
# Track frame offsets:
#	150
#	11156
#	22134
#	36225
#	50125
#	60267
#	76401
#	92349
#	109639
#	125143
#
# Disc length: 1838 seconds
#
# Revision: 0
# Processed by: cddbd v1.5.2PL0 Copyright (c) Steve Scherf et al.
# Submitted via: dBpowerAMP V4.0
#
DISCID=7f072c0a
DTITLE=Kenny Vaughan - V
DYEAR=2011
DGENRE=Country
TTITLE0=Country Music Got a Hold on Me
TTITLE1=Hot like That
TTITLE2=Lillie Mae
TTITLE3=Wagon Ride
TTITLE4=Stay Outta My Dreams
TTITLE5=Minuit sur la Plage
TTITLE6=The Things I Do
TTITLE7=Okolona Tennessee
TTITLE8=Mysterium
TTITLE9=Don't Leave Home Without Jesus
EXTD=
EXTT0=
EXTT1=
EXTT2=
EXTT3=
EXTT4=
EXTT5=
EXTT6=
EXTT7=
EXTT8=
EXTT9=
PLAYORDER=
